<?xml version="1.0" encoding="utf-8"?>
<!-- Generator: Adobe Illustrator 28.0.0, SVG Export Plug-In . SVG Version: 6.00 Build 0)  -->
<svg version="1.1" id="Layer_1" xmlns="http://www.w3.org/2000/svg" xmlns:xlink="http://www.w3.org/1999/xlink" x="0px" y="0px"
	 viewBox="0 0 28.3 28.3" style="enable-background:new 0 0 28.3 28.3;" xml:space="preserve">
<circle style="stroke:#00AEEF;stroke-width:0.75;stroke-miterlimit:10;" cx="14.2" cy="14.2" r="13.6"/>
<g>
	<linearGradient id="SVGID_1_" gradientUnits="userSpaceOnUse" x1="3.335" y1="14.3765" x2="10.1377" y2="14.3765">
		<stop  offset="0" style="stop-color:#2484C6"/>
		<stop  offset="1" style="stop-color:#2484C6;stop-opacity:0"/>
	</linearGradient>
	<path style="fill:url(#SVGID_1_);" d="M3.3,9.1C3.9,9,4.9,8.9,5.9,8.9c1.4,0,2.3,0.2,3,0.8c0.6,0.4,0.9,1.1,0.9,1.9
		c0,1-0.7,2-1.8,2.4v0c1,0.3,2.2,1.1,2.2,2.7c0,0.9-0.4,1.6-0.9,2.2c-0.8,0.7-2,1-3.7,1c-1,0-1.7-0.1-2.2-0.1V9.1z M4.7,13.5H6
		c1.5,0,2.3-0.8,2.3-1.8c0-1.3-1-1.8-2.4-1.8c-0.6,0-1,0-1.2,0.1V13.5z M4.7,18.7c0.3,0,0.7,0.1,1.2,0.1c1.4,0,2.8-0.5,2.8-2.1
		c0-1.5-1.3-2.1-2.8-2.1H4.7V18.7z"/>
	
		<linearGradient id="SVGID_00000018213468733500482190000014018767819072823947_" gradientUnits="userSpaceOnUse" x1="12.0068" y1="14.3684" x2="18.0088" y2="14.3684">
		<stop  offset="0" style="stop-color:#2484C6"/>
		<stop  offset="1" style="stop-color:#2484C6;stop-opacity:0"/>
	</linearGradient>
	<path style="fill:url(#SVGID_00000018213468733500482190000014018767819072823947_);" d="M12,9h1.4v9.6H18v1.2h-6V9z"/>
	
		<linearGradient id="SVGID_00000057840466458324815040000003472858872186134971_" gradientUnits="userSpaceOnUse" x1="19.0137" y1="14.3606" x2="25.5449" y2="14.3606">
		<stop  offset="0" style="stop-color:#2484C6"/>
		<stop  offset="1" style="stop-color:#2484C6;stop-opacity:0"/>
	</linearGradient>
	<path style="fill:url(#SVGID_00000057840466458324815040000003472858872186134971_);" d="M19.4,18.1c0.6,0.4,1.5,0.7,2.5,0.7
		c1.4,0,2.3-0.8,2.3-1.8c0-1-0.6-1.6-2-2.1c-1.8-0.6-2.8-1.5-2.8-3.1c0-1.7,1.4-2.9,3.5-2.9c1.1,0,1.9,0.3,2.4,0.5l-0.4,1.1
		c-0.4-0.2-1.1-0.5-2-0.5c-1.5,0-2,0.9-2,1.6c0,1,0.7,1.5,2.1,2.1c1.8,0.7,2.8,1.6,2.8,3.2c0,1.7-1.2,3.1-3.8,3.1
		c-1,0-2.2-0.3-2.8-0.7L19.4,18.1z"/>
</g>
</svg>
